<?xml version="1.0" encoding="utf-8" ?>	<!-- Generator: Assembly 2.4 - http://assemblyapp.co -->	<svg version="1.1" xmlns="http://www.w3.org/2000/svg" xmlns:xlink="http://www.w3.org/1999/xlink" width="4096.00" height="4096.00" viewBox="0 0 4096.0 4096.0">		<g id="document" transform="scale(13.653333333333334 13.653333333333334) translate(150.0 150.0)">			<path d="M148.874,4.15333 C151.168,-78.0673 86.374,-146.58 4.15333,-148.874 C-78.0673,-151.168 -146.58,-86.374 -148.874,-4.15333 C-151.168,78.0673 -86.374,146.58 -4.15333,148.874 C78.0673,151.168 146.58,86.374 148.874,4.15333 Z " fill="#802880" fill-opacity="1.00" />			<path d="M-88.6674,65.4602 C-91.9377,84.2426 -100.133,110.423 -67.0736,103.375 C-34.0144,96.3273 45.7721,94.8339 63.4937,103.375 C81.2153,111.916 96.0034,91.6008 91.0249,65.4602 C86.0464,39.3196 85.5897,-21.2864 85.5897,-21.2864 C76.0482,-38.1095 -78.8749,-23.6674 -88.6674,-6.84432 L-88.6674,65.4602 Z " fill="#ffffff" fill-opacity="1.00" />			<path d="M-42.794,2.45501 C-4.58262,-0.902149 24.337,-27.0345 21.7998,-55.9131 C19.2626,-84.7918 -13.7707,-105.481 -51.9821,-102.124 C-90.1935,-98.7668 -119.113,-72.6345 -116.576,-43.7558 C-114.039,-14.8771 -81.0055,5.81217 -42.794,2.45501 Z " fill="#ffffff" fill-opacity="1.00" />			<path d="M106.491,-47.2091 C108.142,-78.1065 86.9814,-103.218 56.0841,-104.869 C25.1867,-106.52 -4.29356,-83.7212 -5.94457,-52.8239 C-7.59557,-21.9265 16.1133,4.4591 47.0106,6.11011 C77.9079,7.76111 104.84,-16.3118 106.491,-47.2091 Z " fill="#ffffff" fill-opacity="1.00" />			<path d="M-0.623707,-69.8063 C-3.21746,-67.7678 -8.88069,-62.7979 -6.63653,-59.2029 C-4.28405,-55.4343 -2.59423,-46.3045 -8.21158,-38.7026 C-10.1973,-36.0154 -1.06094,-24.3577 0.718376,-26.1553 C16.841,-42.4438 6.56092,-75.4529 -0.623707,-69.8063 Z " fill="#802880" fill-opacity="1.00" />			<path d="M-60.1243,31.2101 C-57.4136,33.6116 -50.1938,22.1138 -53.0008,19.7549 C-61.4391,12.6638 -57.3516,1.50804 -53.6447,-3.87346 C-51.564,-6.89414 -62.1847,-13.4883 -64.4348,-10.6525 C-72.8286,-0.0741696 -73.9819,18.933 -60.1243,31.2101 Z " fill="#802880" fill-opacity="1.00" />			<path d="M9.25286,70.9144 C17.7402,53.003 67.3998,13.1745 69.1704,13.1745 C70.9409,13.1745 67.1124,-4.36237 63.2305,-4.36237 C59.3486,-4.36237 0.272142,50.1169 0.272141,55.3593 C0.272139,60.6018 5.0434,79.7979 9.25286,70.9144 Z " fill="#802880" fill-opacity="1.00" />			<path d="M71.1912,55.8829 C55.9003,47.2548 31.9405,8.04249e-07 26.2668,-1.44376e-07 C10.1683,6.75017e-07 1.54138,1.50847 4.9971,4.69214 C29.3975,27.1716 37.3117,58.7916 47.2231,66.4566 C57.1345,74.1215 81.216,61.5396 71.1912,55.8829 Z " fill="#802880" fill-opacity="1.00" />			<path d="M-13.5944,32.959 C-25.809,31.4576 -31.0756,29.7029 -41.4441,24.7563 C-44.6456,23.2289 -43.1857,26.663 -47.2243,32.8257 C-50.1105,37.23 -13.9153,48.0081 -12.4166,43.3069 C-8.64956,31.4907 -11.3294,33.2374 -13.5944,32.959 Z " fill="#802880" fill-opacity="1.00" />			<path d="M-45.243,-8.88644 C-32.8691,-15.0833 -22.8066,-13.3364 -11.0077,-18.3242 C-7.99157,-19.5993 -12.4519,-32.2652 -16.4126,-29.147 C-22.9954,-23.9646 -52.1206,-23.4492 -51.3068,-18.0264 C-49.2613,-4.39641 -47.5375,-7.73735 -45.243,-8.88644 Z " fill="#802880" fill-opacity="1.00" />			<path d="M-44.3282,-75.1956 C-32.1136,-73.6942 -26.847,-71.9395 -16.4786,-66.9929 C-13.277,-65.4656 -14.737,-68.8996 -10.6984,-75.0624 C-7.8121,-79.4667 -44.0073,-90.2447 -45.5061,-85.5435 C-49.2731,-73.7273 -46.5932,-75.474 -44.3282,-75.1956 Z " fill="#802880" fill-opacity="1.00" />			<path d="M-59.3753,-74.6188 C-65.2108,-73.4941 -72.9102,-71.3781 -83.2401,-65.5402 C-86.9888,-63.4216 -85.6151,-66.2326 -88.3705,-73.4887 C-90.3397,-78.6743 -57.1288,-90.8176 -57.0406,-85.1462 C-56.8907,-75.51 -56.8763,-75.1005 -59.3753,-74.6188 Z " fill="#802880" fill-opacity="1.00" />			<path d="M-124.637,-58.8398 C-118.787,-59.8843 -111.059,-61.8943 -100.65,-67.5897 C-96.8727,-69.6565 -98.2849,-66.8647 -95.6294,-59.5714 C-93.7317,-54.3592 -127.106,-42.6734 -127.117,-48.3455 C-127.134,-57.9828 -127.143,-58.3925 -124.637,-58.8398 Z " fill="#802880" fill-opacity="1.00" />		</g>	</svg>