<?xml version="1.0" encoding="utf-8" ?>	<!-- Generator: Assembly 2.4 - http://assemblyapp.co -->	<svg version="1.1" xmlns="http://www.w3.org/2000/svg" xmlns:xlink="http://www.w3.org/1999/xlink" width="4096.00" height="4096.00" viewBox="0 0 4096.0 4096.0">		<g id="document" transform="scale(13.653333333333334 13.653333333333334) translate(150.0 150.0)">			<path d="M1.42436e-06,147.563 C81.548,147.563 147.563,81.548 147.563,0 C147.563,-81.548 81.548,-147.563 1.42436e-06,-147.563 C-81.548,-147.563 -147.563,-81.548 -147.563,0 C-147.563,81.548 -81.548,147.563 1.42436e-06,147.563 Z " fill="#cbfaf8" fill-opacity="1.00" />			<path d="M102.916,-19.6638 C92.0561,-76.5081 37.171,-113.786 -19.6733,-102.926 C-76.5175,-92.0655 -113.795,-37.1804 -102.935,19.6638 C-92.075,76.5081 -37.1898,113.786 19.6544,102.926 C76.4986,92.0655 113.776,37.1804 102.916,-19.6638 Z " fill="#91b3b2" fill-opacity="1.00" />			<path d="M97.4254,-25.1837 C83.9643,-78.984 29.4382,-111.685 -24.3622,-98.2244 C-78.1625,-84.7633 -110.864,-30.2372 -97.4029,23.5631 C-83.9418,77.3635 -29.4157,110.065 24.3846,96.6039 C78.185,83.1428 110.886,28.6167 97.4254,-25.1837 Z " fill="#cbfaf8" fill-opacity="1.00" />			<path d="M-20.5537,99.5195 C-12.1419,100.589 -3.88569,94.4143 -2.29097,85.8819 C-10.7138,85.0544 -18.7278,91.2184 -20.5537,99.5195 Z " fill="#91b3b2" fill-opacity="1.00" />			<path d="M-20.8946,101.71 C-12.4828,102.78 -7.13594,110.152 -8.85724,118.811 C-17.2691,117.742 -22.7206,110.012 -20.8946,101.71 Z " fill="#91b3b2" fill-opacity="1.00" />			<path d="M2.35871,101.109 C10.8353,100.883 18.053,93.5212 18.3276,84.8454 C9.87718,85.3124 2.89714,92.6266 2.35871,101.109 Z " fill="#91b3b2" fill-opacity="1.00" />			<path d="M2.35601,103.326 C10.8326,103.1 17.2413,109.571 16.8609,118.391 C8.38434,118.617 1.81757,111.809 2.35601,103.326 Z " fill="#91b3b2" fill-opacity="1.00" />			<path d="M25.6373,98.0545 C33.7306,95.5244 38.6659,86.4724 36.563,78.0509 C28.5606,80.8057 23.841,89.7469 25.6373,98.0545 Z " fill="#91b3b2" fill-opacity="1.00" />			<path d="M26.2397,100.188 C34.333,97.6583 42.264,102.135 44.3045,110.724 C36.2112,113.254 28.0361,108.496 26.2397,100.188 Z " fill="#91b3b2" fill-opacity="1.00" />			<path d="M46.1934,90.2445 C54.0466,85.4453 56.854,74.6131 52.4178,66.3016 C44.7197,71.3135 42.1101,81.9722 46.1934,90.2445 Z " fill="#91b3b2" fill-opacity="1.00" />			<path d="M47.3907,92.3322 C55.2438,87.5329 64.7748,90.153 69.1896,98.6575 C61.3364,103.457 51.474,100.605 47.3907,92.3322 Z " fill="#91b3b2" fill-opacity="1.00" />			<path d="M65.548,77.6377 C72.0876,71.1617 72.3297,59.9742 66.1017,52.9052 C59.7619,59.5525 59.6724,70.5256 65.548,77.6377 Z " fill="#91b3b2" fill-opacity="1.00" />			<path d="M67.1931,79.3942 C73.7326,72.9182 83.6107,73.2772 89.8622,80.5391 C83.3227,87.0151 73.0687,86.5063 67.1931,79.3942 Z " fill="#91b3b2" fill-opacity="1.00" />			<path d="M81.4694,60.8718 C86.3993,53.1 84.1392,42.1404 76.491,36.6391 C71.7941,44.5334 74.1551,55.2499 81.4694,60.8718 Z " fill="#91b3b2" fill-opacity="1.00" />			<path d="M83.4649,62.217 C88.3948,54.4452 98.1039,52.5911 105.818,58.2752 C100.888,66.047 90.7792,67.8389 83.4649,62.217 Z " fill="#91b3b2" fill-opacity="1.00" />			<path d="M93.8757,39.3012 C96.8715,30.599 92.1347,20.4609 83.4203,16.8804 C80.6794,25.6479 85.4582,35.5262 93.8757,39.3012 Z " fill="#91b3b2" fill-opacity="1.00" />			<path d="M96.1285,40.1477 C99.1243,31.4454 108.14,27.3932 116.961,31.1361 C113.965,39.8384 104.546,43.9228 96.1285,40.1477 Z " fill="#91b3b2" fill-opacity="1.00" />			<path d="M100.58,16.0252 C100.948,6.82908 93.4972,-1.51987 84.1214,-2.44467 C84.016,6.74061 91.4323,14.8287 100.58,16.0252 Z " fill="#91b3b2" fill-opacity="1.00" />			<path d="M102.981,16.1885 C103.349,6.99235 110.82,0.51983 120.344,1.56965 C119.976,10.7658 112.128,17.385 102.981,16.1885 Z " fill="#91b3b2" fill-opacity="1.00" />			<path d="M100.921,-8.79229 C100.168,-17.9649 91.757,-25.3456 82.3384,-25.1232 C83.351,-15.9933 91.696,-8.86733 100.921,-8.79229 Z " fill="#91b3b2" fill-opacity="1.00" />			<path d="M103.324,-8.92228 C102.571,-18.0949 109.199,-25.4281 118.78,-25.5445 C119.533,-16.3719 112.549,-8.84725 103.324,-8.92228 Z " fill="#91b3b2" fill-opacity="1.00" />			<path d="M95.9349,-32.149 C93.5607,-41.041 83.9699,-46.8061 74.7414,-44.9101 C77.3636,-36.1064 86.844,-30.5802 95.9349,-32.149 Z " fill="#91b3b2" fill-opacity="1.00" />			<path d="M98.2764,-32.7048 C95.9022,-41.5968 101.118,-49.993 110.526,-51.8137 C112.9,-42.9217 107.367,-34.2736 98.2764,-32.7048 Z " fill="#91b3b2" fill-opacity="1.00" />			<path d="M85.6548,-54.8782 C80.7218,-62.648 69.843,-65.2695 61.6088,-60.6917 C66.7518,-53.0805 77.4535,-50.6538 85.6548,-54.8782 Z " fill="#91b3b2" fill-opacity="1.00" />			<path d="M87.7216,-56.111 C82.7886,-63.8808 85.2451,-73.4553 93.6728,-78.015 C98.6058,-70.2451 95.9228,-60.3353 87.7216,-56.111 Z " fill="#91b3b2" fill-opacity="1.00" />			<path d="M69.8702,-74.2031 C62.6574,-79.9197 51.5215,-78.8198 45.2494,-71.7898 C52.6084,-66.292 63.5132,-67.5178 69.8702,-74.2031 Z " fill="#91b3b2" fill-opacity="1.00" />			<path d="M71.417,-76.0468 C64.2042,-81.7634 63.3771,-91.6133 69.8378,-98.6898 C77.0506,-92.9732 77.774,-82.7321 71.417,-76.0468 Z " fill="#91b3b2" fill-opacity="1.00" />			<path d="M50.4148,-88.4363 C42.3215,-92.8185 31.5439,-89.8082 26.583,-81.7989 C34.7823,-77.6575 45.3105,-80.7518 50.4148,-88.4363 Z " fill="#91b3b2" fill-opacity="1.00" />			<path d="M51.6192,-90.5198 C43.5259,-94.902 41.0068,-104.46 46.1455,-112.548 C54.2387,-108.166 56.7234,-98.2043 51.6192,-90.5198 Z " fill="#91b3b2" fill-opacity="1.00" />			<path d="M26.3305,-98.6301 C17.2074,-99.8436 8.20786,-93.1932 6.42372,-83.9425 C15.5603,-82.9918 24.2968,-89.6318 26.3305,-98.6301 Z " fill="#91b3b2" fill-opacity="1.00" />			<path d="M26.7142,-101.006 C17.591,-102.219 11.8339,-110.254 13.7562,-119.642 C22.8793,-118.428 28.7479,-110.004 26.7142,-101.006 Z " fill="#91b3b2" fill-opacity="1.00" />			<path d="M1.07184,-101.801 C-8.13105,-101.907 -16.2644,-94.2214 -16.9217,-84.8231 C-7.73713,-84.9794 0.136379,-92.6231 1.07184,-101.801 Z " fill="#91b3b2" fill-opacity="1.00" />			<path d="M1.16664,-104.205 C-8.03625,-104.312 -14.719,-111.595 -13.9409,-121.145 C-4.73802,-121.039 2.10209,-113.383 1.16664,-104.205 Z " fill="#91b3b2" fill-opacity="1.00" />			<path d="M-26.592,-98.1874 C-35.7414,-95.5632 -41.5202,-85.5363 -39.3841,-76.0299 C-30.3307,-78.9087 -24.7968,-88.817 -26.592,-98.1874 Z " fill="#91b3b2" fill-opacity="1.00" />			<path d="M-27.2112,-100.598 C-36.3607,-97.9739 -45.1419,-103.208 -47.2035,-112.901 C-38.0541,-115.525 -29.0064,-109.969 -27.2112,-100.598 Z " fill="#91b3b2" fill-opacity="1.00" />			<path d="M-52.1501,-87.567 C-60.3119,-82.6697 -63.3062,-71.4908 -58.7883,-62.858 C-50.7849,-67.9766 -47.9966,-78.9776 -52.1501,-87.567 Z " fill="#91b3b2" fill-opacity="1.00" />			<path d="M-53.3707,-89.736 C-61.5325,-84.8387 -71.3673,-87.6283 -75.8614,-96.4606 C-67.6996,-101.358 -57.5241,-98.3253 -53.3707,-89.736 Z " fill="#91b3b2" fill-opacity="1.00" />			<path d="M-73.5651,-70.3417 C-80.0474,-63.3718 -79.8221,-51.801 -73.086,-44.761 C-66.8174,-51.8995 -67.1913,-63.2422 -73.5651,-70.3417 Z " fill="#91b3b2" fill-opacity="1.00" />			<path d="M-75.3397,-72.0868 C-81.822,-65.1169 -92.0446,-65.068 -98.8132,-72.3062 C-92.3309,-79.2761 -81.7135,-79.1863 -75.3397,-72.0868 Z " fill="#91b3b2" fill-opacity="1.00" />			<path d="M-42.4004,97.9386 L-36.7388,87.8441 C-51.7829,89.1889 -86.7201,42.2825 -90.649,35.903 C-94.5779,29.5235 -105.483,-12.0834 -90.5907,-41.5501 L-96.6338,-43.284 C-106.323,-18.5122 -111.013,17.4688 -100.074,40.8391 C-89.1348,64.2093 -68.8109,86.076 -42.4004,97.9386 Z " fill="#cbfaf8" fill-opacity="1.00" />			<path d="M-98.9014,-33.1027 C-102.145,-42.0514 -97.5231,-51.1698 -87.9935,-53.8891 C-84.7502,-44.9403 -89.6756,-35.5341 -98.9014,-33.1027 Z " fill="#91b3b2" fill-opacity="1.00" />			<path d="M18.2475,-8.91352 L11.2326,-45.3911 L-12.1657,-64.8122 L-30.843,-57.774 C-30.843,-57.774 -48.4718,-30.3877 -45.4205,-20.9992 C-40.0737,-11.2207 -49.6942,-7.73333 -42.6607,7.64725 C-35.6272,23.0278 -39.1458,36.927 -36.816,40.1233 C-34.4863,43.3197 -29.7809,46.7371 -14.3642,44.2647 C1.05253,41.7923 18.2475,-8.91352 18.2475,-8.91352 Z " fill="#ffbda3" fill-opacity="1.00" />			<path d="M-7.37133,-8.87341 C-7.42399,-9.18299 -9.32194,-17.934 -16.1407,-15.9743 C-18.4571,-18.3894 -19.413,-22.314 -14.9616,-23.0969 C-8.68451,-24.201 -23.6781,-23.7743 -23.6781,-23.7743 C-23.6781,-23.7743 -26.3905,-17.2344 -26.7745,-11.5131 C-26.7745,-4.98193 -24.3497,-7.36436 -21.5381,-8.06086 C-19.8001,-8.49143 -17.0681,-7.89919 -14.9908,-7.91047 C-12.9135,-7.92175 -7.24942,-8.15666 -7.37133,-8.87341 Z " fill="#e7a48a" fill-opacity="1.00" />			<path d="M35.9043,42.1079 C31.8607,37.1386 34.4537,34.769 30.5989,28.6322 C28.649,25.528 18.8715,16.6989 21.8657,10.858 C23.6745,7.32941 24.3888,-1.55524 17.1512,-7.30325 C9.91357,-13.0513 -0.00780034,7.51579 -1.69779,9.24703 C-9.30459,17.0395 -7.5393,59.9816 -7.5393,59.9816 L-11.961,76.1892 C-11.961,76.1892 -5.16511,84.6523 11.4002,81.1271 C16.8808,79.9607 24.0025,78.2067 30.8449,67.6725 C36.6096,58.7974 48.0283,51.7688 48.0283,51.7688 C48.0283,51.7688 39.948,47.0772 35.9043,42.1079 Z " fill="#ffbda3" fill-opacity="1.00" />			<path d="M39.5888,58.0833 C48.2374,50.2956 49.7466,52.5274 47.6055,50.7606 C45.4644,48.9938 37.8241,44.6816 34.3206,39.842 C26.6652,6.09379 29.5073,3.26151 25.2893,-6.25167 C21.0713,-15.7648 12.6687,-33.6281 12.6687,-33.6281 C12.6687,-33.6281 3.89485,-18.0526 8.64934,-12.2843 C14.5237,-5.15727 15.0757,-0.0831753 15.0757,4.88464 C15.0757,9.85246 13.3319,22.6054 12.4385,25.3887 C11.2163,29.1966 25.3846,43.8739 31.2568,50.5479 C37.1291,57.2219 38.0831,56.7681 39.5888,58.0833 Z " fill="#e7a48a" fill-opacity="1.00" />			<path d="M-37.0042,41.2096 C-37.0317,41.1837 -37.0449,41.1698 -37.0449,41.1698 C-37.0449,41.1698 -37.0267,41.1909 -36.9909,41.2304 C-36.1332,42.5705 -34.7232,43.6788 -32.3783,44.5946 C-31.166,45.1774 -29.7491,45.6564 -28.1655,45.8463 C-22.7524,46.4957 -15.4854,45.0896 -15.4854,45.0896 L-7.97218,72.66 C10.366,66.2096 15.2681,24.2884 3.62479,33.5149 C-4.67347,40.0907 -19.4662,45.1577 -27.7011,44.0287 C-35.936,42.8996 -37.6341,37.5285 -36.1984,33.5149 C-34.7627,29.5014 -33.6525,28.5378 -33.8728,24.9932 C-34.093,21.4485 -37.3705,18.5878 -36.442,17.517 C-34.6924,15.0813 -30.2221,18.747 -29.2297,17.045 C-27.773,15.3761 -29.6495,10.7084 -27.4536,9.03128 C-25.2577,7.35413 -23.4464,7.71314 -22.4471,6.26714 C-21.6054,5.04906 -22.5493,3.36893 -22.5493,3.36893 C-22.5493,3.36893 -24.2234,7.42628 -28.2858,6.20081 C-31.5282,5.22273 -33.5757,9.12061 -37.3706,7.52812 C-41.7632,5.68477 -40.1056,0.569081 -38.7115,-0.937513 C-35.5453,-4.35922 -36.3732,-7.78729 -34.6537,-11.5126 C-31.4525,-18.4479 -34.1345,-23.4716 -34.1345,-23.4716 L-45.3167,-26.4353 C-45.3167,-26.4353 -47.1554,-23.1305 -44.6936,-17.3134 C-42.5813,-12.322 -49.1656,-7.8378 -48.1025,3.61673 C-47.5709,9.34399 -42.9348,16.2178 -40.9301,21.3861 C-38.9253,26.5545 -38.5882,32.6384 -38.2828,36.5733 C-38.1438,38.3647 -37.8366,39.8978 -37.0042,41.2096 L-37.0042,41.2096 Z " fill="#e7a48a" fill-opacity="1.00" />			<path d="M-32.7729,-54.5867 C-23.1903,-58.1222 -13.5872,-61.0286 -0.584831,-49.8437 C7.37467,-42.9968 2.84436,-32.9064 10.2255,-24.9742 C16.1775,-18.5778 10.8831,-14.0096 18.8773,-5.55593 C21.3325,-2.95957 24.876,2.75184 21.8071,10.8188 C19.1168,17.8904 29.4614,25.5735 31.6853,30.5044 C32.7972,32.9698 33.4077,38.2089 34.0559,39.5697 C34.704,40.9305 35.6001,41.409 35.6001,41.409 C35.6001,41.409 44.8893,32.961 44.9693,26.8728 C45.0314,22.1538 44.4468,19.5031 47.5114,14.0815 C48.9478,11.5403 51.1516,3.34945 47.5666,-10.0609 C45.8208,-16.5913 52.0375,-20.02 50.1362,-32.3391 C47.5585,-49.0405 27.1931,-66.0027 24.1918,-68.0607 C-10.7513,-92.0215 -38.7545,-52.3799 -32.7729,-54.5867 Z " fill="#ac6852" fill-opacity="1.00" />			<path d="M-13.1594,44.3039 C-14.2793,44.6229 -15.0805,44.964 -16.8756,45.2854 C-17.8508,48.5886 -19.2235,56.7173 -25.8987,60.2548 C-35.8875,65.5483 -38.3491,77.7863 -41.1851,85.8003 C-44.0212,93.8143 -54.817,101.109 -53.9986,112.404 C-52.8909,127.693 -50.7937,107.374 -41.3647,101.863 C-31.9356,96.3523 -27.8774,96.2827 -20.2785,89.1285 C-12.6797,81.9742 -12.9422,74.8434 -5.64751,71.6043 C-8.89394,47.333 -13.2339,44.3784 -13.1594,44.3039 Z " fill="#ac6852" fill-opacity="1.00" />			<path d="M-12.6243,-23.2389 C-8.18309,-23.516 1.73244,-18.5799 -1.41728,-21.0117 C-4.567,-23.4434 -8.14982,-24.7853 -13.1043,-25.4878 C-18.0588,-26.1903 -23.4606,-25.1511 -23.5906,-23.9589 C-23.6557,-23.3628 -21.2185,-21.7603 -18.8041,-22.2245 C-16.3896,-22.6886 -14.8449,-23.1003 -12.6243,-23.2389 Z " fill="#ac6852" fill-opacity="1.00" />			<path d="M-39.2425,-27.3167 C-42.5754,-27.7127 -45.4552,-27.0056 -45.5529,-26.1839 C-45.6505,-25.3622 -45.6131,-25.8645 -42.2802,-25.4685 C-38.9473,-25.0725 -33.0394,-21.5949 -33.9401,-23.6216 C-34.8407,-25.6483 -35.9096,-26.9207 -39.2425,-27.3167 Z " fill="#ac6852" fill-opacity="1.00" />			<path d="M-12.7298,-11.697 C-7.51643,-12.2422 -8.03722,-12.2057 -6.42918,-12.1242 C-5.50162,-12.0772 -3.84565,-12.0733 -5.11373,-13.0251 C-6.38182,-13.9769 -7.48605,-14.6004 -8.54409,-15.181 C-10.5621,-16.2884 -12.7328,-17.2919 -15.263,-17.2977 C-17.8694,-17.3036 -20.5271,-14.5433 -21.0176,-13.502 C-21.6654,-12.1265 -19.2021,-13.9359 -17.3368,-13.2809 C-15.4715,-12.6259 -15.0516,-11.4542 -12.7298,-11.697 Z " fill="#ac6852" fill-opacity="1.00" />			<path d="M-41.0949,-13.6905 C-39.5872,-13.3477 -37.3929,-13.8209 -35.9118,-13.9498 C-34.4308,-14.0786 -33.6625,-13.8924 -33.582,-14.5969 C-36.5233,-18.5004 -38.4838,-18.5442 -39.6545,-18.9236 C-42.4926,-19.8433 -44.2298,-18.0511 -44.434,-17.3445 C-44.6383,-16.6378 -44.1101,-14.3761 -41.0949,-13.6905 Z " fill="#ac6852" fill-opacity="1.00" />			<path d="M-35.3125,21.7702 L-21.0746,23.9663 L-15.9052,19.7207 L-36.3508,17.5917 L-35.3125,21.7702 Z " fill="#fffbd4" fill-opacity="1.00" />			<path d="M-39.0044,16.5946 C-39.1232,16.9652 -36.8804,17.8728 -36.231,20.6838 C-35.8524,22.3227 -35.1195,27.8999 -27.1509,26.2016 C-19.1824,24.5034 -14.0922,19.0363 -15.938,18.3963 C-16.8246,18.0889 -16.7641,18.5387 -18.8599,17.7903 C-20.9557,17.0419 -25.195,15.9257 -28.1825,15.858 C-30.6842,15.8014 -34.4295,14.5472 -36.132,15.1624 C-37.9185,15.808 -38.7407,15.7716 -39.0044,16.5946 Z M-30.1987,21.7049 C-32.3778,21.5057 -35.3423,20.4456 -35.4821,18.0869 C-35.5521,16.9057 -33.5237,18.4114 -29.9049,18.569 C-26.2861,18.7265 -24.2459,18.4055 -20.6593,19.1672 C-18.8659,19.548 -16.0913,18.8659 -17.5626,19.942 C-18.2982,20.48 -20.8963,21.8289 -23.0963,21.7376 C-25.2963,21.6464 -28.9231,21.8214 -30.1987,21.7049 Z " fill="#ff9391" fill-opacity="1.00" />		</g>	</svg>