<?xml version="1.0" encoding="utf-8" ?>	<!-- Generator: Assembly 2.4 - http://assemblyapp.co -->	<svg version="1.1" xmlns="http://www.w3.org/2000/svg" xmlns:xlink="http://www.w3.org/1999/xlink" width="4096.00" height="4096.00" viewBox="0 0 4096.0 4096.0">		<g id="document" transform="scale(13.653333333333334 13.653333333333334) translate(150.0 150.0)">			<path d="M11.0778,146.706 C33.8321,146.706 54.8899,143.412 74.251,136.825 C93.6122,130.239 111.077,120.558 126.646,107.784 L106.287,65.8679 C93.1132,76.247 79.4406,84.231 65.2691,89.8198 C51.0975,95.4086 34.8301,98.203 16.467,98.203 C-1.8962,98.203 -18.0638,95.1092 -32.0357,88.9216 C-46.0077,82.734 -57.1853,73.4526 -65.5685,61.0775 C-73.9516,48.7023 -79.1412,33.7323 -81.1372,16.1676 L128.442,16.1676 C131.636,11.3772 134.131,4.98999 135.927,-2.99399 C137.724,-10.978 138.622,-18.3632 138.622,-25.1495 C138.622,-48.3031 133.033,-69.0614 121.856,-87.4246 C110.678,-105.788 95.0094,-120.259 74.8498,-130.838 C54.6903,-141.416 30.6385,-146.706 2.69459,-146.706 C-23.6525,-146.706 -47.5047,-140.718 -68.8618,-128.742 C-90.219,-116.766 -107.185,-99.7998 -119.76,-77.8438 C-132.335,-55.8879 -138.622,-29.9399 -138.622,0 C-138.622,31.5367 -132.035,58.1833 -118.862,79.9396 C-105.688,101.696 -87.8238,118.263 -65.2691,129.64 C-42.7143,141.017 -17.2654,146.706 11.0778,146.706 Z M-81.1372,-27.5447 C-77.5444,-42.7143 -71.6562,-55.5885 -63.4727,-66.1673 C-55.2891,-76.746 -45.3091,-84.9296 -33.5327,-90.718 C-21.7564,-96.5064 -9.08178,-99.4006 4.49099,-99.4006 C21.6566,-99.4006 35.8281,-96.6062 47.0057,-91.0174 C58.1833,-85.4286 66.5665,-77.744 72.1552,-67.9636 C77.744,-58.1833 80.5384,-46.7063 80.5384,-33.5327 C80.5384,-32.3351 80.5384,-31.2373 80.5384,-30.2393 C80.5384,-29.2413 80.3388,-28.3431 79.9396,-27.5447 L-81.1372,-27.5447 Z " fill="#91b3b2" fill-opacity="1.00" />		</g>	</svg>