<?xml version="1.0" encoding="utf-8" ?>	<!-- Generator: Assembly 2.4 - http://assemblyapp.co -->	<svg version="1.1" xmlns="http://www.w3.org/2000/svg" xmlns:xlink="http://www.w3.org/1999/xlink" width="4096.00" height="4096.00" viewBox="0 0 4096.0 4096.0">		<g id="document" transform="scale(13.653333333333334 13.653333333333334) translate(150.0 150.0)">			<path d="M-31.6967,-107.545 L-56.586,21.2017 L-57.2006,21.2017 L-81.7826,-107.545 L-133.712,-107.545 L-133.712,107.545 L-95.3027,107.545 L-95.3027,-24.8893 L-94.6881,-24.8893 L-70.1061,107.545 L-43.681,107.545 L-18.4839,-24.8893 L-18.4839,107.545 L19.9249,107.545 L19.9249,-107.545 L-31.6967,-107.545 Z " fill="#bc1012" fill-opacity="1.00" />			<path d="M94.2109,21.9846 C70.377,21.9846 51.0339,41.3278 51.0339,65.1613 C51.0339,88.9951 70.377,108.338 94.2109,108.338 C118.044,108.338 137.387,88.9951 137.387,65.1613 C137.387,41.3278 118.044,21.9846 94.2109,21.9846 Z " fill="#fffb8b" fill-opacity="1.00" />			<path d="M94.2109,-21.1921 C118.044,-21.1921 137.387,-40.5353 137.387,-64.369 C137.387,-88.2023 118.044,-107.545 94.2109,-107.545 C70.377,-107.545 51.0339,-88.2023 51.0339,-64.369 C51.0339,-40.5353 70.377,-21.1921 94.2109,-21.1921 Z " fill="#c5e0dc" fill-opacity="1.00" />		</g>	</svg>