<?xml version="1.0" encoding="utf-8" ?>	<!-- Generator: Assembly 2.4 - http://assemblyapp.co -->	<svg version="1.1" xmlns="http://www.w3.org/2000/svg" xmlns:xlink="http://www.w3.org/1999/xlink" width="4096.00" height="4096.00" viewBox="0 0 4096.0 4096.0">		<g id="document" transform="scale(13.653333333333334 13.653333333333334) translate(150.0 150.0)">			<path d="M-47.3633,36.5658 C-33.5598,36.5658 -20.7856,34.5679 -9.04055,30.5722 C2.70448,26.5765 13.2992,20.7039 22.7437,12.9546 L10.3932,-12.4727 C2.40177,-6.17643 -5.8924,-1.33312 -14.4893,2.0572 C-23.0862,5.44752 -32.9544,7.14268 -44.094,7.14268 C-55.2336,7.14268 -65.0413,5.26589 -73.5171,1.51233 C-81.9929,-2.24124 -88.7736,-7.87159 -93.859,-15.3787 C-98.9445,-22.8859 -102.093,-31.9671 -103.304,-42.6224 L23.8334,-42.6224 C25.7707,-45.5283 27.2843,-49.403 28.374,-54.2463 C29.4638,-59.0896 30.0086,-63.5697 30.0086,-67.6865 C30.0086,-81.7321 26.6183,-94.3247 19.8377,-105.464 C13.0571,-116.604 3.55206,-125.382 -8.67731,-131.8 C-20.9067,-138.217 -35.4971,-141.426 -52.4487,-141.426 C-68.4317,-141.426 -82.9011,-137.793 -95.8569,-130.528 C-108.813,-123.263 -119.105,-112.971 -126.733,-99.6523 C-134.361,-86.3332 -138.175,-70.5925 -138.175,-52.4301 C-138.175,-33.299 -134.18,-17.1344 -126.188,-3.9364 C-118.197,9.26162 -107.36,19.3115 -93.6774,26.2132 C-79.9951,33.1149 -64.557,36.5658 -47.3633,36.5658 Z M-103.304,-69.1395 C-101.124,-78.3418 -97.5521,-86.1516 -92.5877,-92.569 C-87.6233,-98.9864 -81.5691,-103.951 -74.4253,-107.462 C-67.2814,-110.974 -59.5926,-112.729 -51.359,-112.729 C-40.9459,-112.729 -32.349,-111.034 -25.5684,-107.644 C-18.7877,-104.253 -13.7022,-99.5918 -10.3119,-93.6587 C-6.92161,-87.7257 -5.22645,-80.7634 -5.22645,-72.772 C-5.22645,-72.0455 -5.22645,-71.3795 -5.22645,-70.7741 C-5.22645,-70.1687 -5.34753,-69.6238 -5.5897,-69.1395 L-103.304,-69.1395 Z " fill="#ffec8a" fill-opacity="1.00" />			<path d="M77.4126,140.28 C89.763,140.28 101.024,138.463 111.195,134.831 C121.366,131.198 130.447,126.113 138.438,119.575 L125.725,93.4206 C117.975,99.2326 110.044,103.47 101.932,106.134 C93.8193,108.798 85.6462,110.13 77.4126,110.13 C66.5151,110.13 57.0101,107.769 48.8976,103.047 C40.785,98.3245 34.4282,91.5438 29.827,82.7048 C25.2259,73.8658 22.9253,63.3921 22.9253,51.2838 C22.9253,38.9334 25.2259,28.3992 29.827,19.6812 C34.4282,10.9632 40.785,4.1826 48.8976,-0.660707 C57.0101,-5.50402 66.5151,-7.92567 77.4126,-7.92567 C85.6462,-7.92567 93.8193,-6.53322 101.932,-3.74832 C110.044,-0.963414 117.975,3.21394 125.725,8.78375 L138.438,-17.0069 C130.447,-23.7875 121.366,-28.9335 111.195,-32.4449 C101.024,-35.9563 89.763,-37.712 77.4126,-37.712 C59.9766,-37.712 44.478,-34.019 30.9168,-26.633 C17.3555,-19.2469 6.82129,-8.89434 -0.685839,4.42477 C-8.19297,17.7439 -11.9465,33.3636 -11.9465,51.2838 C-11.9465,69.2041 -8.19297,84.8237 -0.685839,98.1429 C6.82129,111.462 17.3555,121.815 30.9168,129.201 C44.478,136.587 59.9766,140.28 77.4126,140.28 Z " fill="#ffec8a" fill-opacity="1.00" />		</g>	</svg>