<?xml version="1.0" encoding="utf-8" ?>	<!-- Generator: Assembly 2.4 - http://assemblyapp.co -->	<svg version="1.1" xmlns="http://www.w3.org/2000/svg" xmlns:xlink="http://www.w3.org/1999/xlink" width="4096.00" height="4096.00" viewBox="0 0 4096.0 4096.0">		<g id="document" transform="scale(13.653333333333334 13.653333333333334) translate(150.0 150.0)">			<path d="M30.0556,131.478 C50.4481,131.478 69.32,128.526 86.6715,122.623 C104.023,116.72 119.675,108.044 133.628,96.5958 L115.382,59.0308 C103.576,68.3326 91.3224,75.4879 78.6219,80.4965 C65.9213,85.5052 51.3425,88.0095 34.8854,88.0095 C18.4283,88.0095 3.93896,85.2369 -8.58273,79.6916 C-21.1044,74.1463 -31.1218,65.8283 -38.6348,54.7376 C-46.1478,43.647 -50.7987,30.2309 -52.5875,14.4894 L135.238,14.4894 C138.1,10.1962 140.336,4.47203 141.946,-2.68322 C143.556,-9.83847 144.361,-16.4571 144.361,-22.539 C144.361,-43.2892 139.352,-61.8929 129.335,-78.35 C119.317,-94.807 105.275,-107.776 87.2081,-117.257 C69.1411,-126.737 47.586,-131.478 22.5426,-131.478 C-1.06972,-131.478 -22.446,-126.111 -41.5863,-115.378 C-60.7266,-104.645 -75.9315,-89.4406 -87.201,-69.7637 C-98.4705,-50.0867 -104.105,-26.8322 -104.105,0 C-104.105,28.2632 -98.2022,52.1439 -86.396,71.6419 C-74.5899,91.14 -58.58,105.987 -38.3664,116.183 C-18.1529,126.38 4.65448,131.478 30.0556,131.478 Z M-52.5875,-24.6856 C-49.3676,-38.2806 -44.0906,-49.8184 -36.7565,-59.2991 C-29.4224,-68.7798 -20.4783,-76.1139 -9.92434,-81.3015 C0.629653,-86.4891 11.9886,-89.0828 24.1525,-89.0828 C39.5363,-89.0828 52.2369,-86.5785 62.2542,-81.5698 C72.2716,-76.5611 79.7846,-69.6742 84.7933,-60.909 C89.8019,-52.1439 92.3063,-41.8582 92.3063,-30.052 C92.3063,-28.9788 92.3063,-27.9949 92.3063,-27.1005 C92.3063,-26.2061 92.1274,-25.4011 91.7696,-24.6856 L-52.5875,-24.6856 Z " fill="#023649" fill-opacity="1.00" />			<path d="M-4.07935,131.478 C16.3131,131.478 35.1851,128.526 52.5365,122.623 C69.888,116.72 85.5401,108.044 99.4929,96.5958 L81.247,59.0308 C69.4408,68.3326 57.1875,75.4879 44.4869,80.4965 C31.7863,85.5052 17.2075,88.0095 0.750442,88.0095 C-15.7066,88.0095 -30.196,85.2369 -42.7177,79.6916 C-55.2394,74.1463 -65.2567,65.8283 -72.7697,54.7376 C-80.2827,43.647 -84.9336,30.2309 -86.7225,14.4894 L101.103,14.4894 C103.965,10.1962 106.201,4.47203 107.811,-2.68322 C109.421,-9.83847 110.226,-16.4571 110.226,-22.539 C110.226,-43.2892 105.217,-61.8929 95.1997,-78.35 C85.1824,-94.807 71.1402,-107.776 53.0732,-117.257 C35.0062,-126.737 13.451,-131.478 -11.5924,-131.478 C-35.2047,-131.478 -56.581,-126.111 -75.7213,-115.378 C-94.8616,-104.645 -110.066,-89.4406 -121.336,-69.7637 C-132.605,-50.0867 -138.24,-26.8322 -138.24,0 C-138.24,28.2632 -132.337,52.1439 -120.531,71.6419 C-108.725,91.14 -92.715,105.987 -72.5014,116.183 C-52.2878,126.38 -29.4805,131.478 -4.07935,131.478 Z M-86.7225,-24.6856 C-83.5026,-38.2806 -78.2256,-49.8184 -70.8915,-59.2991 C-63.5573,-68.7798 -54.6133,-76.1139 -44.0593,-81.3015 C-33.5053,-86.4891 -22.1464,-89.0828 -9.98243,-89.0828 C5.40135,-89.0828 18.1019,-86.5785 28.1193,-81.5698 C38.1366,-76.5611 45.6496,-69.6742 50.6583,-60.909 C55.667,-52.1439 58.1713,-41.8582 58.1713,-30.052 C58.1713,-28.9788 58.1713,-27.9949 58.1713,-27.1005 C58.1713,-26.2061 57.9924,-25.4011 57.6347,-24.6856 L-86.7225,-24.6856 Z " fill="#a9ebfa" fill-opacity="1.00" />		</g>	</svg>