<?xml version="1.0" encoding="utf-8" ?>	<!-- Generator: Assembly 2.4 - http://assemblyapp.co -->	<svg version="1.1" xmlns="http://www.w3.org/2000/svg" xmlns:xlink="http://www.w3.org/1999/xlink" width="4096.00" height="4096.00" viewBox="0 0 4096.0 4096.0">		<g id="document" transform="scale(13.653333333333334 13.653333333333334) translate(150.0 150.0)">			<path d="M113.56,149.211 C133.175,149.211 149.005,133.037 149.349,113.766 L149.349,-113.354 C149.349,-132.969 133.519,-149.143 113.56,-149.143 L-113.56,-149.143 C-133.175,-149.143 -149.349,-133.313 -149.349,-113.354 L-149.349,113.422 C-149.349,133.037 -133.519,149.211 -113.56,149.211 L113.56,149.211 Z " fill="#000000" fill-opacity="1.00" />			<path d="M88.2494,96.425 C89.5661,95.1289 90.3861,92.9677 89.41,89.3641 C87.0101,80.5034 74.3727,81.2101 72.3989,82.3132 C68.4512,84.5194 74.9438,101.429 59.9944,98.6947 C56.9966,98.1464 54.7932,97.524 47.9769,91.7224 C34.3444,80.1192 30.5935,58.3927 32.7028,43.8726 C37.564,10.4083 60.4025,-5.81709 76.8877,-6.05581 C93.0255,-6.28951 107.899,3.14772 107.142,13.6444 C106.68,20.0466 99.0989,22.832 93.2348,23.7679 L93.2348,23.7679 C93.4047,23.8045 93.5711,23.84 93.7334,23.8747 C102.731,25.7973 106.135,22.6397 109.523,18.1537 C112.91,13.6678 114.054,-14.0208 112.85,-14.4587 C95.439,-20.7882 67.7584,-20.1122 52.3817,-12.6397 C37.0049,-5.16717 32.3481,-2.72712 21.8055,12.9042 C11.2628,28.5355 10.8263,55.326 10.8263,55.326 L10.8229,55.3258 L10.8236,55.3287 C10.8236,55.3287 -23.937,53.3563 -51.4589,52.9738 C-78.9808,52.5914 -94.2372,53.9379 -99.3071,54.1504 C-99.5997,54.1627 -99.328,52.0093 -99.2633,51.5257 L-99.2693,51.5229 C-99.2693,51.5229 -99.2665,51.5179 -99.2609,51.5078 C-99.2542,51.4579 -99.2503,51.4302 -99.2503,51.4302 C-99.2503,51.4302 -99.239,51.429 -99.2163,51.4268 C-98.54,50.1906 -91.547,37.0965 -86.9143,15.9257 C-82.0421,-6.33946 -79.8518,-37.0412 -81.8404,-57.4666 C-82.7928,-67.2484 -87.0402,-79.2139 -91.8478,-87.3172 L-112.301,-83.0881 L-112.285,-83.1591 L-112.382,-83.1117 C-112.382,-83.1117 -113.167,-85.605 -112.192,-85.702 C-111.864,-85.7346 -105.009,-89.1368 -96.0431,-93.644 C-98.7633,-97.2095 -101.048,-98.7534 -107.009,-103.239 C-115.259,-109.446 -120.483,-111.283 -124.135,-111.104 C-124.958,-111.064 -127.159,-110.44 -127.693,-108.264 C-128.228,-106.088 -127.83,-104.386 -127.15,-102.85 C-126.469,-101.314 -125.405,-100.373 -123.832,-99.9353 C-122.26,-99.4977 -120.504,-99.6802 -120.891,-100.963 C-121.278,-102.245 -122.899,-102.488 -122.85,-103.426 C-122.732,-103.882 -122.31,-104.858 -121.638,-105.046 C-120.965,-105.234 -119.991,-105.238 -118.858,-104.064 C-117.151,-102.292 -117.216,-99.6624 -118.084,-98.2831 C-118.953,-96.9039 -121.635,-96.1035 -124.069,-96.8305 C-126.46,-97.5449 -128.046,-98.9275 -129.527,-100.822 C-131.009,-102.717 -131.725,-107.607 -130.701,-109.939 C-129.678,-112.271 -127.313,-113.68 -125.581,-113.931 C-123.849,-114.182 -119.505,-114.714 -114.188,-111.909 C-109.043,-109.195 -100.705,-104.618 -93.5196,-95.3974 C-93.4297,-95.282 -93.34,-95.1659 -93.2507,-95.0491 C-75.6816,-103.897 -52.2421,-115.834 -52.2421,-115.834 L-52.2405,-115.828 C-51.3296,-116.299 -50.0652,-116.887 -48.6432,-117.358 C-45.7892,-118.304 -41.4593,-118.932 -37.8269,-118.417 C-33.8292,-117.849 -24.4885,-114.482 -23.4872,-107.035 C-22.9866,-103.312 -25.6081,-100.105 -35.0675,-93.9049 C-39.9824,-90.6837 -46.6513,-89.235 -49.5166,-83.5143 C-52.3818,-77.7936 -54.176,-60.3718 -54.3184,-58.7508 C-55.7442,-42.5114 -57.5655,-15.1806 -58.728,2.98564 C-55.4111,1.09694 -47.4005,-2.92894 -41.6619,-1.44124 C-34.2553,0.47886 -35.9404,8.8914 -39.8153,14.4711 C-41.8713,17.4316 -45.0367,20.8185 -47.9592,23.7485 C-50.8817,26.6785 -51.3095,29.9052 -48.777,31.8363 C-46.8245,33.3252 -38.4431,33.1589 -29.8468,32.2235 C-21.2505,31.2881 -14.402,28.78 -11.6661,28.0257 C-9.53659,27.4386 3.81103,22.3089 -0.352825,14.3922 C-4.51668,6.47547 -18.633,11.1122 -20.3974,12.9042 C-23.9262,16.4883 -22.3752,20.4543 -20.7938,21.1302 C-19.2125,21.8061 -17.1314,22.478 -13.9486,22.0965 C-10.095,21.6345 -7.54786,20.0475 -7.72994,18.1531 C-7.91201,16.2586 -11.408,16.2078 -12.5788,16.3864 C-15.2079,16.7873 -16.3751,18.1753 -16.9315,17.8463 C-16.9315,17.8463 -18.4145,17.4154 -18.4164,16.6704 C-18.4183,15.9255 -17.4227,14.7892 -15.1956,14.1114 C-11.8543,13.0944 -9.22294,13.7782 -7.97594,14.2169 C-5.48195,15.0944 -4.28848,16.2369 -4.98191,19.5603 C-5.62737,22.6538 -10.0577,25.4884 -14.0676,25.6057 C-16.4569,25.6757 -20.9489,25.4175 -23.3785,23.1281 C-25.808,20.8387 -26.1637,18.4049 -25.9649,16.7536 C-25.9011,16.2241 -25.8137,15.7243 -25.6868,15.2477 C-25.1779,13.1075 -23.3374,9.09716 -16.7554,5.53288 C-7.22503,0.37197 3.82199,2.18313 8.13427,7.48335 C10.5753,10.4836 11.8502,15.618 12.4235,21.4381 C16.3167,13.0812 27.1974,-2.38188 42.3308,-10.542 C62.8342,-21.5977 83.3894,-25.4814 113.931,-17.9811 C118.254,-16.9195 114.436,15.2158 112.168,19.3628 C104.927,32.6026 85.8899,26.2242 81.7574,22.284 C78.7091,19.3776 72.2514,11.5074 82.6925,5.77624 C87.9181,2.90789 99.8982,5.11998 98.1827,12.1768 C96.4672,19.2337 87.4563,17.6029 85.288,15.3927 C83.0519,13.1134 85.8739,12.9174 85.8739,12.9174 C85.8739,12.9174 91.6835,15.4735 93.736,12.546 C95.7885,9.61857 92.1319,7.60113 87.7521,7.65411 C83.3722,7.70709 80.6836,10.3825 80.9167,14.0083 C80.9171,14.0142 80.9175,14.0201 80.9179,14.026 C81.1761,15.8139 82.2967,18.7748 86.7701,19.8922 C93.3623,21.5387 101.532,20.4908 103.194,14.3903 C104.855,8.28979 88.4384,-7.59224 67.1374,-1.41871 C60.9338,0.379236 34.9278,12.2886 36.4545,54.7855 C36.9633,68.9511 41.9221,81.3739 54.0375,91.2239 C60.0952,96.1489 68.4521,97.726 67.4978,84.2953 C67.0125,77.4653 83.5968,74.9728 92.3643,85.5832 C96.2693,90.309 91.3909,92.9475 93.3958,93.0723 C93.4675,93.0768 93.536,93.0824 93.6014,93.0891 C95.6334,91.499 97.68,89.4586 99.4446,86.8582 C105.745,77.5743 105.669,63.7002 111.483,62.5797 C117.298,61.4593 134.669,81.9972 130.987,85.0874 C128.927,86.8172 111.038,117.907 66.6329,116.592 C22.2276,115.278 17.6833,73.8925 -11.2738,62.5133 C-25.7524,56.8238 -40.952,57.0079 -45.1068,59.1188 C-47.1842,60.1742 -50.6146,61.8925 -49.2517,65.571 C-48.5703,67.4102 -45.2805,69.4622 -43.6464,69.5974 C-42.679,69.6775 -39.3493,69.8094 -39.1395,67.8359 C-38.9298,65.8623 -41.8604,66.118 -42.8622,65.6369 C-43.8639,65.1558 -43.3908,63.5079 -41.4794,63.2384 C-39.5679,62.9689 -36.2182,64.0777 -35.9561,67.0414 C-35.6941,70.0051 -39.1053,72.956 -43.2495,72.4105 C-50.0326,71.5176 -53.2233,67.1311 -53.2475,64.005 C-53.2961,57.7528 -46.9553,54.2952 -34.4308,54.457 C-9.38196,54.7808 4.39192,67.6047 11.1647,74.9861 C24.7102,89.7489 31.0973,108.663 58.887,113.469 C98.9412,120.395 125.495,88.7325 127.66,84.5372 C129.559,80.8577 115.395,65.3055 112.872,65.5537 C110.117,65.8247 107.781,76.7531 103.149,85.7125 C98.5178,94.6719 91.2109,99.0335 84.6609,100.612 C81.9101,101.333 83.2523,98.2876 83.2523,98.2876 C83.2523,98.2876 85.3601,97.8304 88.2494,96.425 L88.2494,96.425 Z M-8.28656,7.08676 C-6.6839,7.06153 -5.31042,7.17213 -4.39633,7.39825 C1.43034,8.83964 3.92339,14.7596 3.76216,17.3322 C3.3933,23.2176 0.0375671,26.3034 -3.80212,28.5434 C-7.6418,30.7833 -22.5571,34.2494 -27.5429,34.7852 C-32.5286,35.321 -46.616,37.0358 -51.8149,33.356 C-54.7282,31.2939 -54.8203,26.278 -48.6503,20.0244 C-42.4803,13.7709 -37.3141,5.20869 -41.8093,2.39084 C-43.4203,1.38093 -44.4681,0.572067 -49.8751,2.18197 C-56.238,4.07648 -58.5948,10.0221 -59.4588,14.5566 C-59.7259,18.8437 -59.8815,21.4126 -59.8815,21.4126 C-59.8815,21.4126 -63.6913,23.3391 -63.2247,21.2016 C-60.8221,10.1973 -61.0209,-23.627 -58.4048,-50.3343 C-58.057,-53.8846 -56.1947,-83.6971 -50.2665,-88.5467 C-44.8799,-92.9533 -39.7014,-95.1051 -36.1742,-97.4262 C-32.647,-99.7473 -32.2327,-101.203 -32.9039,-105.61 C-33.9894,-112.735 -45.8402,-112.992 -52.3524,-112.583 L-56.8478,-110.376 C-57.6549,-109.777 -58.492,-108.943 -58.8166,-107.907 C-59.5198,-105.664 -60.1355,-99.8015 -60.1355,-99.8015 L-60.1461,-99.8011 C-60.3144,-90.384 -60.8352,-75.0336 -62.3226,-53.4593 C-64.4856,-22.0859 -68.6927,22.4492 -70.2618,38.7331 C-33.5845,38.8512 -20.4307,36.7263 -10.7911,34.0209 C0.0612007,30.9752 6.02696,27.5972 6.02696,27.5972 L4.37164,49.7193 C4.37164,49.7193 -21.9739,48.2399 -50.5142,47.6227 C-79.0546,47.0054 -91.2872,48.8294 -91.2872,48.8294 L-91.1792,48.6457 L-91.4555,48.6952 C-91.4555,48.6952 -83.0474,37.6525 -78.4925,-0.710346 C-76.9245,-13.9163 -74.3995,-33.458 -72.9073,-63.7222 C-72.3029,-75.98 -72.6184,-84.8983 -73.2078,-91.1713 L-88.6164,-87.9853 C-83.8707,-79.6235 -80.3942,-69.6398 -79.2843,-61.3379 C-76.511,-40.5926 -79.81,-4.8491 -84.7904,18.5173 C-88.6306,36.534 -93.4706,47.1923 -95.4855,51.1282 C-89.6964,50.7286 -77.2381,50.0924 -58.1583,50.2569 C-35.5467,50.4518 -3.63546,51.771 6.73914,52.2221 C8.01914,44.8282 11.0429,24.7426 7.9894,15.2223 C6.09783,9.32459 2.55375,5.47596 -2.8137,5.1408 C-11.2835,4.61191 -10.9038,6.53849 -8.28656,7.08676 Z M-42.7838,-104.945 C-42.3457,-104.606 -41.6953,-104.215 -41.0634,-104.252 C-39.9663,-104.315 -39.1357,-105.42 -39.0819,-105.952 C-38.9743,-107.016 -40.9576,-106.625 -41.6307,-107.204 C-42.3039,-107.782 -41.6669,-109.33 -41.6669,-109.33 C-41.6669,-109.33 -39.1245,-109.276 -37.9701,-108.686 C-36.8158,-108.097 -35.9579,-106.713 -36.1371,-105.044 C-36.3163,-103.374 -39.9227,-102.402 -41.5536,-101.503 C-42.2662,-101.11 -42.7111,-100.75 -42.9862,-100.469 C-43.8577,-98.6633 -45.3451,-96.5587 -47.1004,-95.4272 C-49.4645,-93.9034 -53.0648,-94.1908 -54.543,-94.6447 C-57.5133,-95.557 -57.666,-97.6336 -57.4673,-100.735 C-57.2686,-103.835 -52.5057,-106.34 -49.2537,-106.496 C-47.1493,-106.597 -44.7156,-106.404 -43.3138,-105.415 L-43.3138,-105.415 C-43.3138,-105.415 -43.3136,-105.415 -43.3133,-105.415 C-43.1148,-105.275 -42.937,-105.119 -42.7838,-104.945 Z M-81.8961,-91.5688 L-74.3527,-93.2221 C-74.1366,-93.5781 -73.9307,-94.0712 -74.2022,-94.3691 C-74.4435,-94.6339 -75.3365,-94.6665 -76.135,-94.6372 L-82.7567,-92.0662 C-83.2526,-91.842 -83.638,-91.6291 -83.6065,-91.52 C-83.5608,-91.3624 -82.6898,-91.4523 -81.8961,-91.5688 Z M-99.3667,-87.7397 L-98.1014,-88.017 L-98.1029,-88.0331 L-93.4795,-89.9316 C-93.914,-90.6062 -94.3206,-91.2214 -94.7085,-91.7884 L-101.708,-88.3522 C-102.669,-87.849 -103.607,-87.2994 -103.541,-87.1016 C-103.491,-86.9485 -102.859,-87.0085 -102.1,-87.1405 L-99.4265,-87.7266 C-99.3702,-87.7407 -99.3394,-87.7486 -99.3394,-87.7486 L-99.3667,-87.7397 Z M-105.784,-86.3332 L-105.789,-86.3485 L-105.849,-86.3189 L-105.784,-86.3332 Z M-75.9745,-100.986 L-91.8814,-93.1764 C-91.4201,-92.5169 -90.9668,-91.8394 -90.5222,-91.1459 L-78.2429,-96.1881 C-76.923,-97.0129 -74.6756,-98.5359 -74.5552,-99.4114 C-74.4547,-100.143 -75.2789,-100.673 -75.9745,-100.986 Z M-49.2267,-104.382 C-51.1529,-104.337 -53.6509,-102.682 -54.3433,-101.087 C-54.7153,-100.229 -54.7141,-98.4223 -53.8588,-97.7914 C-53.0035,-97.1606 -50.9992,-96.965 -50.1154,-97.2684 C-48.2795,-97.8986 -45.697,-100.382 -45.5775,-102.248 C-45.458,-104.113 -47.3005,-104.426 -49.2267,-104.382 Z M-50.5689,-99.4802 C-51.1954,-99.4287 -51.7403,-100.005 -51.7918,-100.631 C-51.8432,-101.258 -50.3166,-102.019 -49.6901,-102.07 C-49.0637,-102.122 -48.6334,-101.439 -48.5819,-100.812 C-48.5305,-100.186 -49.9424,-99.5317 -50.5689,-99.4802 Z M111.771,68.0698 C114.168,69.6431 125.445,82.7786 125.445,82.7786 C125.445,82.7786 105.897,104.584 87.0223,109.961 C68.1474,115.337 41.7143,109.489 28.7808,92.8248 C1.65837,57.8793 16.2249,14.9232 35.151,-0.0125828 C50.9902,-12.5123 66.5271,-16.6414 82.2612,-16.5111 C97.3965,-16.3858 110.83,-12.6397 110.83,-12.6397 C110.83,-12.6397 109.508,3.54938 108.337,5.68351 C105.615,4.32641 93.6052,-10.1504 74.6538,-8.63444 C55.7023,-7.11847 28.8531,17.2782 29.5752,55.0419 C30.3966,98.0055 65.7412,109.441 88.6234,100.397 C111.506,91.3525 110.089,73.0814 111.771,68.0698 Z " fill="#f8c027" fill-opacity="1.00" />		</g>	</svg>