<?xml version="1.0" encoding="utf-8" ?>	<!-- Generator: Assembly 2.4 - http://assemblyapp.co -->	<svg version="1.1" xmlns="http://www.w3.org/2000/svg" xmlns:xlink="http://www.w3.org/1999/xlink" width="4096.00" height="4096.00" viewBox="0 0 4096.0 4096.0">		<g id="document" transform="scale(13.653333333333334 13.653333333333334) translate(150.0 150.0)">			<path d="M36.3929,43.3282 C79.7003,43.3282 118.625,27.3457 148.27,-0.236986 C118.883,-26.7886 79.4426,-43.8022 36.3929,-43.8022 C-6.65677,-43.8022 -45.8397,-27.5619 -75.4847,-0.236986 C-46.0975,26.3146 -6.39899,43.3282 36.3929,43.3282 Z " fill="#91b3b2" fill-opacity="1.00" />			<path d="M-98.29,-0.166497 C-76.308,-8.16961 -55.8038,-21.081 -38.0551,-38.8298 C-7.79665,-69.0882 8.24397,-109.19 10.249,-148.744 C-30.0348,-147.104 -69.2249,-130.881 -99.6656,-100.44 C-130.106,-69.9996 -147.215,-28.9167 -147.197,-0.250797 C-147.18,28.4151 -130.289,69.3434 -99.6656,99.9664 C-69.0426,130.589 -30.2171,146.812 10.249,148.27 C8.24396,108.716 -7.61437,68.7965 -38.0551,38.3558 C-55.6925,20.7184 -76.2672,7.85397 -98.29,-0.166497 L-98.29,-0.166497 Z " fill="#91b3b2" fill-opacity="1.00" />		</g>	</svg>