<?xml version="1.0" encoding="utf-8" ?>	<!-- Generator: Assembly 2.4 - http://assemblyapp.co -->	<svg version="1.1" xmlns="http://www.w3.org/2000/svg" xmlns:xlink="http://www.w3.org/1999/xlink" width="4096.00" height="4096.00" viewBox="0 0 4096.0 4096.0">		<g id="document" transform="scale(13.653333333333334 13.653333333333334) translate(150.0 150.0)">			<path d="M-35.8552,-43.5652 C-79.1626,-43.5652 -118.088,-27.5827 -147.733,0 C-118.346,26.5516 -78.9049,43.5652 -35.8552,43.5652 C7.19448,43.5652 46.3774,27.3249 76.0224,0 C46.6352,-26.5516 6.9367,-43.5652 -35.8552,-43.5652 Z " fill="#91b3b2" fill-opacity="1.00" />			<path d="M98.8278,-0.0704885 C76.8457,7.93263 56.3415,20.844 38.5928,38.5928 C8.33437,68.8512 -7.70625,108.953 -9.71134,148.507 C30.5725,146.867 69.7626,130.644 100.203,100.203 C130.644,69.7626 147.753,28.6797 147.735,0.0138117 C147.718,-28.6521 130.826,-69.5803 100.203,-100.203 C69.5803,-130.826 30.7548,-147.049 -9.71133,-148.507 C-7.70625,-108.953 8.15208,-69.0335 38.5928,-38.5928 C56.2302,-20.9554 76.8049,-8.09095 98.8278,-0.0704885 L98.8278,-0.0704885 Z " fill="#91b3b2" fill-opacity="1.00" />		</g>	</svg>